# Blender 5.2.0 LTS
# www.blender.org
o bunny
v -0.046671 0.366265 -0.234540
v 0.111198 0.416816 -0.215137
v 0.021313 0.358640 -0.305865
v 0.116707 0.047130 0.253903
v 0.196037 0.087182 0.211365
v 0.194880 0.153437 0.255168
v -0.029049 0.999257 -0.307189
v -0.101351 0.948022 -0.250289
v -0.043726 0.992348 -0.169824
v -0.188846 0.561066 0.103227
v -0.202988 0.438724 0.197480
v -0.065932 0.553197 0.128294
v -0.046671 0.366265 -0.234540
v -0.122898 0.244557 -0.197592
v -0.267025 0.403837 -0.248460
v 0.209245 0.349619 -0.236651
v 0.276925 0.274485 -0.206841
v 0.021313 0.358640 -0.305865
v -0.501072 0.487625 0.167335
v -0.530998 0.549762 0.185637
v -0.529461 0.511488 0.013185
v 0.269062 0.156527 -0.189819
v 0.371720 0.184341 -0.037445
v 0.290507 0.072023 -0.075841
v -0.241027 0.954782 -0.470203
v -0.148458 0.856427 -0.481512
v -0.260646 0.796776 -0.458737
v 0.207034 0.083462 -0.177307
v 0.146630 0.224808 -0.260525
v 0.269062 0.156527 -0.189819
v -0.250418 0.136418 0.128878
v -0.225357 0.046275 0.040480
v -0.250747 0.094834 0.171480
v 0.146630 0.224808 -0.260525
v 0.038610 0.107543 -0.246353
v -0.052843 0.254646 -0.306516
v -0.336079 0.061584 0.009652
v -0.323418 0.000000 0.059968
v -0.225357 0.046275 0.040480
v -0.222262 0.089395 -0.117233
v -0.022095 0.091575 -0.219476
v -0.193600 0.033605 -0.223310
v -0.274365 0.686902 -0.156417
v -0.229119 0.696270 -0.128129
v -0.213595 0.589746 -0.159845
v 0.454632 0.246422 0.030845
v 0.445449 0.190614 0.149163
v 0.466157 0.168006 0.040645
v -0.167939 0.999998 -0.442419
v -0.148458 0.856427 -0.481512
v -0.241027 0.954782 -0.470203
v -0.274365 0.686902 -0.156417
v -0.288106 0.720526 -0.243025
v -0.274367 0.782373 -0.193946
v -0.541887 0.582400 0.005398
v -0.477804 0.535932 -0.121953
v -0.529461 0.511488 0.013185
v -0.222221 0.787392 -0.023882
v -0.108298 0.853379 -0.083056
v -0.253412 0.816698 -0.031882
v -0.133867 0.018380 0.285293
v -0.025921 0.094495 0.263792
v -0.152760 0.111873 0.219075
v -0.049697 0.832522 -0.252212
v 0.019861 0.821619 -0.245194
v -0.229119 0.696270 -0.128129
v 0.232986 0.547616 -0.170954
v 0.317072 0.431598 -0.148652
v 0.219852 0.452914 -0.183242
v 0.400216 0.324274 0.128648
v 0.280110 0.110347 0.210959
v 0.382273 0.234051 0.130636
v 0.036945 0.983829 -0.278928
v 0.019861 0.821619 -0.245194
v 0.010538 0.937115 -0.345825
v 0.382273 0.234051 0.130636
v 0.445449 0.190614 0.149163
v 0.454632 0.246422 0.030845
v 0.195033 0.420430 0.269920
v 0.350688 0.431277 0.180359
v 0.262867 0.512168 0.204481
v 0.390717 0.464871 -0.039468
v 0.400216 0.324274 0.128648
v 0.402861 0.247366 0.026505
v -0.510392 0.384000 0.025778
v -0.464783 0.335631 0.119199
v -0.461756 0.465400 0.101532
v 0.135363 0.652573 0.040095
v 0.275374 0.598720 -0.003499
v 0.154417 0.624453 -0.074195
v -0.469092 0.289189 -0.071158
v -0.385685 0.173238 0.080528
v -0.413397 0.241265 0.135502
v 0.232986 0.547616 -0.170954
v 0.390717 0.464871 -0.039468
v 0.317072 0.431598 -0.148652
v -0.196235 0.711465 -0.064893
v -0.161767 0.617689 -0.025871
v -0.229119 0.696270 -0.128129
v -0.385318 0.723235 -0.166222
v -0.260646 0.796776 -0.458737
v -0.276289 0.735363 -0.399106
v -0.481034 0.459649 -0.039830
v -0.477804 0.535932 -0.121953
v -0.370087 0.497697 -0.163958
v -0.267025 0.403837 -0.248460
v -0.395538 0.369640 -0.194901
v -0.370087 0.497697 -0.163958
v -0.288106 0.720526 -0.243025
v -0.274365 0.686902 -0.156417
v -0.343071 0.677743 -0.176283
v -0.301628 0.978534 -0.405706
v -0.167939 0.999998 -0.442419
v -0.241027 0.954782 -0.470203
v -0.343231 0.792893 -0.090822
v -0.253412 0.816698 -0.031882
v -0.228913 0.884494 -0.106724
v -0.358366 0.824972 0.014830
v -0.253412 0.816698 -0.031882
v -0.343231 0.792893 -0.090822
v -0.274367 0.782373 -0.193946
v -0.343231 0.792893 -0.090822
v -0.259619 0.796100 -0.138686
v -0.520480 0.756345 -0.005042
v -0.450777 0.775239 0.097495
v -0.358366 0.824972 0.014830
v -0.541887 0.582400 0.005398
v -0.505791 0.671349 0.168206
v -0.499484 0.679732 -0.048097
v 0.390717 0.464871 -0.039468
v 0.402861 0.247366 0.026505
v 0.372408 0.337396 -0.125129
v -0.285312 0.776476 0.120755
v -0.450777 0.775239 0.097495
v -0.382296 0.725494 0.195018
v 0.269062 0.156527 -0.189819
v 0.290507 0.072023 -0.075841
v 0.207034 0.083462 -0.177307
v -0.469092 0.289189 -0.071158
v -0.395538 0.369640 -0.194901
v -0.389581 0.183955 -0.074175
v -0.213595 0.589746 -0.159845
v -0.267025 0.403837 -0.248460
v -0.370087 0.497697 -0.163958
v -0.167226 0.220472 0.226196
v -0.250418 0.136418 0.128878
v -0.152760 0.111873 0.219075
v -0.236135 0.000196 -0.110260
v -0.222262 0.089395 -0.117233
v -0.193600 0.033605 -0.223310
v 0.192048 0.000914 -0.181246
v 0.192900 0.001141 -0.057660
v -0.110359 0.000541 -0.233079
v -0.481034 0.459649 -0.039830
v -0.469092 0.289189 -0.071158
v -0.510392 0.384000 0.025778
v 0.154417 0.624453 -0.074195
v 0.275374 0.598720 -0.003499
v 0.232986 0.547616 -0.170954
v -0.382296 0.725494 0.195018
v -0.450777 0.775239 0.097495
v -0.505791 0.671349 0.168206
v 0.127239 0.622637 0.157024
v 0.135363 0.652573 0.040095
v -0.065932 0.553197 0.128294
v -0.259619 0.796100 -0.138686
v -0.274365 0.686902 -0.156417
v -0.274367 0.782373 -0.193946
v 0.077552 0.550976 0.229738
v 0.262867 0.512168 0.204481
v 0.127239 0.622637 0.157024
v -0.110359 0.000541 -0.233079
v 0.192900 0.001141 -0.057660
v -0.379319 0.001137 0.152107
v -0.241027 0.954782 -0.470203
v -0.360760 0.915778 -0.368318
v -0.301628 0.978534 -0.405706
v -0.014750 0.506322 -0.214653
v 0.111198 0.416816 -0.215137
v -0.046671 0.366265 -0.234540
v -0.122898 0.244557 -0.197592
v -0.022095 0.091575 -0.219476
v -0.260989 0.152114 -0.100023
v -0.363087 0.466708 0.169209
v -0.464783 0.335631 0.119199
v -0.334946 0.367332 0.223432
v -0.259619 0.796100 -0.138686
v -0.049697 0.832522 -0.252212
v -0.229119 0.696270 -0.128129
v 0.374278 0.000252 0.098204
v 0.445449 0.190614 0.149163
v 0.307972 0.000764 0.180051
v 0.390717 0.464871 -0.039468
v 0.232986 0.547616 -0.170954
v 0.275374 0.598720 -0.003499
v 0.219852 0.452914 -0.183242
v 0.317072 0.431598 -0.148652
v 0.209245 0.349619 -0.236651
v -0.369821 0.022159 -0.073634
v -0.236135 0.000196 -0.110260
v -0.323418 0.000000 0.059968
v -0.110359 0.000541 -0.233079
v -0.193600 0.033605 -0.223310
v -0.022095 0.091575 -0.219476
v 0.192048 0.000914 -0.181246
v 0.207034 0.083462 -0.177307
v 0.192900 0.001141 -0.057660
v 0.077552 0.550976 0.229738
v 0.127239 0.622637 0.157024
v -0.065932 0.553197 0.128294
v 0.390717 0.464871 -0.039468
v 0.275374 0.598720 -0.003499
v 0.312547 0.552663 0.124331
v 0.079064 0.234994 0.326105
v 0.267133 0.299542 0.257953
v 0.139613 0.342332 0.312480
v -0.060683 0.341368 0.310714
v -0.028454 0.203808 0.324976
v 0.049090 0.381917 0.315630
v 0.021313 0.358640 -0.305865
v -0.052843 0.254646 -0.306516
v -0.046671 0.366265 -0.234540
v -0.481034 0.459649 -0.039830
v -0.395538 0.369640 -0.194901
v -0.469092 0.289189 -0.071158
v -0.022095 0.091575 -0.219476
v -0.052843 0.254646 -0.306516
v 0.038610 0.107543 -0.246353
v -0.046578 0.591539 -0.072925
v 0.135363 0.652573 0.040095
v 0.154417 0.624453 -0.074195
v -0.510392 0.384000 0.025778
v -0.461756 0.465400 0.101532
v -0.481034 0.459649 -0.039830
v -0.052843 0.254646 -0.306516
v -0.022095 0.091575 -0.219476
v -0.122898 0.244557 -0.197592
v -0.029049 0.999257 -0.307189
v 0.036945 0.983829 -0.278928
v 0.010538 0.937115 -0.345825
v -0.193600 0.033605 -0.223310
v -0.110359 0.000541 -0.233079
v -0.236135 0.000196 -0.110260
v -0.406018 0.770564 -0.140209
v -0.499484 0.679732 -0.048097
v -0.520480 0.756345 -0.005042
v -0.306370 0.025935 0.216192
v -0.250747 0.094834 0.171480
v -0.379319 0.001137 0.152107
v -0.358744 0.831773 -0.280539
v -0.385318 0.723235 -0.166222
v -0.406018 0.770564 -0.140209
v -0.530998 0.549762 0.185637
v -0.505791 0.671349 0.168206
v -0.529461 0.511488 0.013185
v -0.363087 0.466708 0.169209
v -0.202988 0.438724 0.197480
v -0.188846 0.561066 0.103227
v -0.253412 0.816698 -0.031882
v -0.043726 0.992348 -0.169824
v -0.228913 0.884494 -0.106724
v -0.505791 0.671349 0.168206
v -0.454187 0.611851 0.246646
v -0.382296 0.725494 0.195018
v 0.209245 0.349619 -0.236651
v 0.021313 0.358640 -0.305865
v 0.111198 0.416816 -0.215137
v -0.343071 0.677743 -0.176283
v -0.274365 0.686902 -0.156417
v -0.213595 0.589746 -0.159845
v -0.323418 0.000000 0.059968
v -0.336079 0.061584 0.009652
v -0.369821 0.022159 -0.073634
v -0.274367 0.782373 -0.193946
v -0.288106 0.720526 -0.243025
v -0.137495 0.823860 -0.420284
v -0.213595 0.589746 -0.159845
v -0.157180 0.533104 -0.205532
v -0.267025 0.403837 -0.248460
v -0.379319 0.001137 0.152107
v -0.225357 0.046275 0.040480
v -0.323418 0.000000 0.059968
v 0.087378 0.545155 -0.168355
v -0.046578 0.591539 -0.072925
v 0.154417 0.624453 -0.074195
v -0.137495 0.823860 -0.420284
v -0.121129 0.922737 -0.398831
v -0.274367 0.782373 -0.193946
v -0.269603 0.699293 0.098361
v -0.373402 0.536546 0.256250
v -0.305166 0.557063 0.181503
v -0.196235 0.711465 -0.064893
v -0.188846 0.561066 0.103227
v -0.161767 0.617689 -0.025871
v -0.406018 0.770564 -0.140209
v -0.385318 0.723235 -0.166222
v -0.499484 0.679732 -0.048097
v -0.269603 0.699293 0.098361
v -0.188846 0.561066 0.103227
v -0.222221 0.787392 -0.023882
v -0.028454 0.203808 0.324976
v 0.116707 0.047130 0.253903
v 0.079064 0.234994 0.326105
v -0.477804 0.535932 -0.121953
v -0.481034 0.459649 -0.039830
v -0.529461 0.511488 0.013185
v 0.390717 0.464871 -0.039468
v 0.372408 0.337396 -0.125129
v 0.317072 0.431598 -0.148652
v 0.307972 0.000764 0.180051
v -0.379319 0.001137 0.152107
v 0.337858 0.000382 -0.008002
v 0.192900 0.001141 -0.057660
v 0.290507 0.072023 -0.075841
v 0.337858 0.000382 -0.008002
v 0.350688 0.431277 0.180359
v 0.267133 0.299542 0.257953
v 0.400216 0.324274 0.128648
v -0.202988 0.438724 0.197480
v -0.363087 0.466708 0.169209
v -0.334946 0.367332 0.223432
v -0.267025 0.403837 -0.248460
v -0.014750 0.506322 -0.214653
v -0.046671 0.366265 -0.234540
v -0.065932 0.553197 0.128294
v -0.099605 0.397552 0.234628
v 0.077552 0.550976 0.229738
v -0.332452 0.285977 0.207423
v -0.250418 0.136418 0.128878
v -0.167226 0.220472 0.226196
v -0.101351 0.948022 -0.250289
v -0.049697 0.832522 -0.252212
v -0.259619 0.796100 -0.138686
v 0.065265 0.255313 -0.310289
v -0.052843 0.254646 -0.306516
v 0.021313 0.358640 -0.305865
v -0.148458 0.856427 -0.481512
v -0.276289 0.735363 -0.399106
v -0.260646 0.796776 -0.458737
v -0.167939 0.999998 -0.442419
v -0.121129 0.922737 -0.398831
v -0.148458 0.856427 -0.481512
v -0.406018 0.770564 -0.140209
v -0.520480 0.756345 -0.005042
v -0.343231 0.792893 -0.090822
v 0.454632 0.246422 0.030845
v 0.426482 0.153877 -0.031341
v 0.371720 0.184341 -0.037445
v -0.228913 0.884494 -0.106724
v -0.101351 0.948022 -0.250289
v -0.259619 0.796100 -0.138686
v 0.195033 0.420430 0.269920
v 0.262867 0.512168 0.204481
v 0.049090 0.381917 0.315630
v -0.505791 0.671349 0.168206
v -0.530998 0.549762 0.185637
v -0.454187 0.611851 0.246646
v 0.194880 0.153437 0.255168
v 0.280110 0.110347 0.210959
v 0.267133 0.299542 0.257953
v -0.269603 0.699293 0.098361
v -0.305166 0.557063 0.181503
v -0.188846 0.561066 0.103227
v 0.262867 0.512168 0.204481
v 0.077552 0.550976 0.229738
v 0.049090 0.381917 0.315630
v 0.019861 0.821619 -0.245194
v -0.049697 0.832522 -0.252212
v -0.039081 0.917012 -0.345430
v -0.014750 0.506322 -0.214653
v -0.046578 0.591539 -0.072925
v 0.087378 0.545155 -0.168355
v 0.077552 0.550976 0.229738
v -0.099605 0.397552 0.234628
v -0.060683 0.341368 0.310714
v -0.323418 0.000000 0.059968
v -0.110359 0.000541 -0.233079
v -0.379319 0.001137 0.152107
v -0.385318 0.723235 -0.166222
v -0.477804 0.535932 -0.121953
v -0.499484 0.679732 -0.048097
v -0.332452 0.285977 0.207423
v -0.334946 0.367332 0.223432
v -0.413397 0.241265 0.135502
v -0.222221 0.787392 -0.023882
v -0.188846 0.561066 0.103227
v -0.196235 0.711465 -0.064893
v 0.382273 0.234051 0.130636
v 0.454632 0.246422 0.030845
v 0.402861 0.247366 0.026505
v 0.454632 0.246422 0.030845
v 0.466157 0.168006 0.040645
v 0.426482 0.153877 -0.031341
v -0.099605 0.397552 0.234628
v -0.167226 0.220472 0.226196
v -0.060683 0.341368 0.310714
v -0.046578 0.591539 -0.072925
v -0.014750 0.506322 -0.214653
v -0.213595 0.589746 -0.159845
v 0.114089 0.000542 0.239889
v -0.379319 0.001137 0.152107
v 0.307972 0.000764 0.180051
v -0.299455 0.253504 -0.215981
v -0.122898 0.244557 -0.197592
v -0.260989 0.152114 -0.100023
v -0.167226 0.220472 0.226196
v -0.099605 0.397552 0.234628
v -0.202988 0.438724 0.197480
v -0.236135 0.000196 -0.110260
v -0.369821 0.022159 -0.073634
v -0.222262 0.089395 -0.117233
v 0.307972 0.000764 0.180051
v 0.445449 0.190614 0.149163
v 0.382273 0.234051 0.130636
v 0.065265 0.255313 -0.310289
v 0.146630 0.224808 -0.260525
v -0.052843 0.254646 -0.306516
v -0.101351 0.948022 -0.250289
v -0.228913 0.884494 -0.106724
v -0.043726 0.992348 -0.169824
v 0.036945 0.983829 -0.278928
v -0.029049 0.999257 -0.307189
v -0.043726 0.992348 -0.169824
v -0.343071 0.677743 -0.176283
v -0.370087 0.497697 -0.163958
v -0.385318 0.723235 -0.166222
v -0.501072 0.487625 0.167335
v -0.373402 0.536546 0.256250
v -0.454187 0.611851 0.246646
v -0.029049 0.999257 -0.307189
v 0.010538 0.937115 -0.345825
v -0.039081 0.917012 -0.345430
v -0.028454 0.203808 0.324976
v -0.060683 0.341368 0.310714
v -0.167226 0.220472 0.226196
v -0.269603 0.699293 0.098361
v -0.382296 0.725494 0.195018
v -0.373402 0.536546 0.256250
v -0.228913 0.884494 -0.106724
v -0.259619 0.796100 -0.138686
v -0.343231 0.792893 -0.090822
v 0.372408 0.337396 -0.125129
v 0.402861 0.247366 0.026505
v 0.371720 0.184341 -0.037445
v -0.108298 0.853379 -0.083056
v -0.043726 0.992348 -0.169824
v -0.253412 0.816698 -0.031882
v 0.371720 0.184341 -0.037445
v 0.402861 0.247366 0.026505
v 0.454632 0.246422 0.030845
v 0.207034 0.083462 -0.177307
v 0.192048 0.000914 -0.181246
v -0.022095 0.091575 -0.219476
v -0.200776 0.000527 0.202610
v -0.152760 0.111873 0.219075
v -0.250747 0.094834 0.171480
v 0.445449 0.190614 0.149163
v 0.374278 0.000252 0.098204
v 0.466157 0.168006 0.040645
v -0.250418 0.136418 0.128878
v -0.259306 0.080160 0.003527
v -0.225357 0.046275 0.040480
v 0.135363 0.652573 0.040095
v -0.046578 0.591539 -0.072925
v -0.065932 0.553197 0.128294
v -0.133867 0.018380 0.285293
v -0.200776 0.000527 0.202610
v 0.114089 0.000542 0.239889
v 0.192900 0.001141 -0.057660
v 0.337858 0.000382 -0.008002
v -0.379319 0.001137 0.152107
v -0.520480 0.756345 -0.005042
v -0.499484 0.679732 -0.048097
v -0.505791 0.671349 0.168206
v -0.046671 0.366265 -0.234540
v -0.052843 0.254646 -0.306516
v -0.122898 0.244557 -0.197592
v -0.360760 0.915778 -0.368318
v -0.241027 0.954782 -0.470203
v -0.288673 0.828165 -0.380060
v -0.520480 0.756345 -0.005042
v -0.358366 0.824972 0.014830
v -0.343231 0.792893 -0.090822
v -0.202988 0.438724 0.197480
v -0.099605 0.397552 0.234628
v -0.065932 0.553197 0.128294
v -0.014750 0.506322 -0.214653
v 0.219852 0.452914 -0.183242
v 0.111198 0.416816 -0.215137
v -0.220257 0.897471 -0.330069
v -0.167939 0.999998 -0.442419
v -0.301628 0.978534 -0.405706
v 0.114089 0.000542 0.239889
v 0.116707 0.047130 0.253903
v -0.025921 0.094495 0.263792
v -0.152760 0.111873 0.219075
v -0.250418 0.136418 0.128878
v -0.250747 0.094834 0.171480
v -0.369821 0.022159 -0.073634
v -0.336079 0.061584 0.009652
v -0.259306 0.080160 0.003527
v -0.382296 0.725494 0.195018
v -0.269603 0.699293 0.098361
v -0.285312 0.776476 0.120755
v 0.276925 0.274485 -0.206841
v 0.269062 0.156527 -0.189819
v 0.146630 0.224808 -0.260525
v 0.049090 0.381917 0.315630
v 0.079064 0.234994 0.326105
v 0.139613 0.342332 0.312480
v 0.077552 0.550976 0.229738
v -0.060683 0.341368 0.310714
v 0.049090 0.381917 0.315630
v 0.232986 0.547616 -0.170954
v 0.219852 0.452914 -0.183242
v 0.087378 0.545155 -0.168355
v -0.299455 0.253504 -0.215981
v -0.389581 0.183955 -0.074175
v -0.395538 0.369640 -0.194901
v -0.133867 0.018380 0.285293
v 0.114089 0.000542 0.239889
v -0.025921 0.094495 0.263792
v -0.269603 0.699293 0.098361
v -0.222221 0.787392 -0.023882
v -0.285312 0.776476 0.120755
v -0.360760 0.915778 -0.368318
v -0.288673 0.828165 -0.380060
v -0.358744 0.831773 -0.280539
v -0.236135 0.000196 -0.110260
v -0.110359 0.000541 -0.233079
v -0.323418 0.000000 0.059968
v 0.312547 0.552663 0.124331
v 0.262867 0.512168 0.204481
v 0.350688 0.431277 0.180359
v -0.332452 0.285977 0.207423
v -0.167226 0.220472 0.226196
v -0.334946 0.367332 0.223432
v -0.260989 0.152114 -0.100023
v -0.222262 0.089395 -0.117233
v -0.259306 0.080160 0.003527
v 0.196037 0.087182 0.211365
v 0.114089 0.000542 0.239889
v 0.307972 0.000764 0.180051
v -0.222262 0.089395 -0.117233
v -0.260989 0.152114 -0.100023
v -0.022095 0.091575 -0.219476
v 0.194880 0.153437 0.255168
v 0.196037 0.087182 0.211365
v 0.280110 0.110347 0.210959
v -0.213595 0.589746 -0.159845
v -0.161767 0.617689 -0.025871
v -0.046578 0.591539 -0.072925
v 0.312547 0.552663 0.124331
v 0.135363 0.652573 0.040095
v 0.127239 0.622637 0.157024
v -0.250747 0.094834 0.171480
v -0.306370 0.025935 0.216192
v -0.200776 0.000527 0.202610
v 0.276925 0.274485 -0.206841
v 0.209245 0.349619 -0.236651
v 0.317072 0.431598 -0.148652
v -0.510392 0.384000 0.025778
v -0.413397 0.241265 0.135502
v -0.464783 0.335631 0.119199
v -0.363087 0.466708 0.169209
v -0.188846 0.561066 0.103227
v -0.305166 0.557063 0.181503
v 0.135363 0.652573 0.040095
v 0.312547 0.552663 0.124331
v 0.275374 0.598720 -0.003499
v -0.343071 0.677743 -0.176283
v -0.213595 0.589746 -0.159845
v -0.370087 0.497697 -0.163958
v 0.400216 0.324274 0.128648
v 0.382273 0.234051 0.130636
v 0.402861 0.247366 0.026505
v -0.461756 0.465400 0.101532
v -0.464783 0.335631 0.119199
v -0.363087 0.466708 0.169209
v -0.267025 0.403837 -0.248460
v -0.299455 0.253504 -0.215981
v -0.395538 0.369640 -0.194901
v -0.121129 0.922737 -0.398831
v -0.137495 0.823860 -0.420284
v -0.148458 0.856427 -0.481512
v -0.167226 0.220472 0.226196
v -0.202988 0.438724 0.197480
v -0.334946 0.367332 0.223432
v 0.371720 0.184341 -0.037445
v 0.276925 0.274485 -0.206841
v 0.372408 0.337396 -0.125129
v -0.276289 0.735363 -0.399106
v -0.343071 0.677743 -0.176283
v -0.385318 0.723235 -0.166222
v -0.469092 0.289189 -0.071158
v -0.389581 0.183955 -0.074175
v -0.385685 0.173238 0.080528
v -0.510392 0.384000 0.025778
v -0.469092 0.289189 -0.071158
v -0.413397 0.241265 0.135502
v -0.220257 0.897471 -0.330069
v -0.121129 0.922737 -0.398831
v -0.167939 0.999998 -0.442419
v -0.222221 0.787392 -0.023882
v -0.358366 0.824972 0.014830
v -0.285312 0.776476 0.120755
v -0.288106 0.720526 -0.243025
v -0.343071 0.677743 -0.176283
v -0.276289 0.735363 -0.399106
v 0.371720 0.184341 -0.037445
v 0.269062 0.156527 -0.189819
v 0.276925 0.274485 -0.206841
v -0.288673 0.828165 -0.380060
v -0.260646 0.796776 -0.458737
v -0.385318 0.723235 -0.166222
v 0.312547 0.552663 0.124331
v 0.350688 0.431277 0.180359
v 0.390717 0.464871 -0.039468
v -0.225357 0.046275 0.040480
v -0.379319 0.001137 0.152107
v -0.250747 0.094834 0.171480
v 0.038610 0.107543 -0.246353
v 0.207034 0.083462 -0.177307
v -0.022095 0.091575 -0.219476
v 0.262867 0.512168 0.204481
v 0.312547 0.552663 0.124331
v 0.127239 0.622637 0.157024
v -0.363087 0.466708 0.169209
v -0.305166 0.557063 0.181503
v -0.373402 0.536546 0.256250
v -0.370087 0.497697 -0.163958
v -0.395538 0.369640 -0.194901
v -0.481034 0.459649 -0.039830
v -0.389581 0.183955 -0.074175
v -0.299455 0.253504 -0.215981
v -0.260989 0.152114 -0.100023
v -0.039081 0.917012 -0.345430
v 0.010538 0.937115 -0.345825
v 0.019861 0.821619 -0.245194
v -0.108298 0.853379 -0.083056
v 0.036945 0.983829 -0.278928
v -0.043726 0.992348 -0.169824
v -0.339248 0.886467 -0.252408
v -0.358744 0.831773 -0.280539
v -0.406018 0.770564 -0.140209
v 0.426482 0.153877 -0.031341
v 0.337858 0.000382 -0.008002
v 0.371720 0.184341 -0.037445
v -0.413397 0.241265 0.135502
v -0.385685 0.173238 0.080528
v -0.250418 0.136418 0.128878
v -0.152760 0.111873 0.219075
v -0.200776 0.000527 0.202610
v -0.133867 0.018380 0.285293
v 0.307972 0.000764 0.180051
v 0.382273 0.234051 0.130636
v 0.280110 0.110347 0.210959
v -0.222221 0.787392 -0.023882
v -0.196235 0.711465 -0.064893
v -0.108298 0.853379 -0.083056
v -0.360760 0.915778 -0.368318
v -0.358744 0.831773 -0.280539
v -0.339248 0.886467 -0.252408
v 0.019861 0.821619 -0.245194
v -0.196235 0.711465 -0.064893
v -0.229119 0.696270 -0.128129
v 0.374278 0.000252 0.098204
v 0.307972 0.000764 0.180051
v 0.337858 0.000382 -0.008002
v 0.049090 0.381917 0.315630
v -0.028454 0.203808 0.324976
v 0.079064 0.234994 0.326105
v -0.461756 0.465400 0.101532
v -0.529461 0.511488 0.013185
v -0.481034 0.459649 -0.039830
v -0.306370 0.025935 0.216192
v -0.379319 0.001137 0.152107
v -0.200776 0.000527 0.202610
v -0.241027 0.954782 -0.470203
v -0.260646 0.796776 -0.458737
v -0.288673 0.828165 -0.380060
v -0.276289 0.735363 -0.399106
v -0.137495 0.823860 -0.420284
v -0.288106 0.720526 -0.243025
v -0.225357 0.046275 0.040480
v -0.259306 0.080160 0.003527
v -0.336079 0.061584 0.009652
v 0.207034 0.083462 -0.177307
v 0.290507 0.072023 -0.075841
v 0.192900 0.001141 -0.057660
v 0.426482 0.153877 -0.031341
v 0.466157 0.168006 0.040645
v 0.337858 0.000382 -0.008002
v -0.389581 0.183955 -0.074175
v -0.260989 0.152114 -0.100023
v -0.385685 0.173238 0.080528
v 0.400216 0.324274 0.128648
v 0.267133 0.299542 0.257953
v 0.280110 0.110347 0.210959
v -0.339248 0.886467 -0.252408
v -0.406018 0.770564 -0.140209
v -0.343231 0.792893 -0.090822
v -0.046578 0.591539 -0.072925
v -0.161767 0.617689 -0.025871
v -0.065932 0.553197 0.128294
v -0.152760 0.111873 0.219075
v -0.025921 0.094495 0.263792
v -0.028454 0.203808 0.324976
v -0.299455 0.253504 -0.215981
v -0.267025 0.403837 -0.248460
v -0.122898 0.244557 -0.197592
v 0.087378 0.545155 -0.168355
v 0.219852 0.452914 -0.183242
v -0.014750 0.506322 -0.214653
v 0.154417 0.624453 -0.074195
v 0.232986 0.547616 -0.170954
v 0.087378 0.545155 -0.168355
v 0.021313 0.358640 -0.305865
v 0.146630 0.224808 -0.260525
v 0.065265 0.255313 -0.310289
v -0.049697 0.832522 -0.252212
v -0.101351 0.948022 -0.250289
v -0.039081 0.917012 -0.345430
v -0.369821 0.022159 -0.073634
v -0.259306 0.080160 0.003527
v -0.222262 0.089395 -0.117233
v -0.137495 0.823860 -0.420284
v -0.276289 0.735363 -0.399106
v -0.148458 0.856427 -0.481512
v -0.028454 0.203808 0.324976
v -0.167226 0.220472 0.226196
v -0.152760 0.111873 0.219075
v -0.520480 0.756345 -0.005042
v -0.505791 0.671349 0.168206
v -0.450777 0.775239 0.097495
v -0.530998 0.549762 0.185637
v -0.501072 0.487625 0.167335
v -0.454187 0.611851 0.246646
v 0.195033 0.420430 0.269920
v 0.049090 0.381917 0.315630
v 0.139613 0.342332 0.312480
v 0.276925 0.274485 -0.206841
v 0.317072 0.431598 -0.148652
v 0.372408 0.337396 -0.125129
v -0.288673 0.828165 -0.380060
v -0.385318 0.723235 -0.166222
v -0.358744 0.831773 -0.280539
v 0.267133 0.299542 0.257953
v 0.079064 0.234994 0.326105
v 0.194880 0.153437 0.255168
v -0.108298 0.853379 -0.083056
v -0.196235 0.711465 -0.064893
v 0.012093 0.839004 -0.198294
v -0.343231 0.792893 -0.090822
v -0.274367 0.782373 -0.193946
v -0.220257 0.897471 -0.330069
v -0.161767 0.617689 -0.025871
v -0.188846 0.561066 0.103227
v -0.065932 0.553197 0.128294
v 0.012093 0.839004 -0.198294
v 0.036945 0.983829 -0.278928
v -0.108298 0.853379 -0.083056
v 0.371720 0.184341 -0.037445
v 0.337858 0.000382 -0.008002
v 0.290507 0.072023 -0.075841
v -0.505791 0.671349 0.168206
v -0.541887 0.582400 0.005398
v -0.529461 0.511488 0.013185
v -0.260989 0.152114 -0.100023
v -0.250418 0.136418 0.128878
v -0.385685 0.173238 0.080528
v 0.350688 0.431277 0.180359
v 0.400216 0.324274 0.128648
v 0.390717 0.464871 -0.039468
v -0.339248 0.886467 -0.252408
v -0.301628 0.978534 -0.405706
v -0.360760 0.915778 -0.368318
v -0.274367 0.782373 -0.193946
v -0.121129 0.922737 -0.398831
v -0.220257 0.897471 -0.330069
v -0.363087 0.466708 0.169209
v -0.501072 0.487625 0.167335
v -0.461756 0.465400 0.101532
v 0.146630 0.224808 -0.260525
v 0.207034 0.083462 -0.177307
v 0.038610 0.107543 -0.246353
v -0.028454 0.203808 0.324976
v -0.025921 0.094495 0.263792
v 0.116707 0.047130 0.253903
v -0.358366 0.824972 0.014830
v -0.450777 0.775239 0.097495
v -0.285312 0.776476 0.120755
v -0.413397 0.241265 0.135502
v -0.250418 0.136418 0.128878
v -0.332452 0.285977 0.207423
v 0.195033 0.420430 0.269920
v 0.267133 0.299542 0.257953
v 0.350688 0.431277 0.180359
v -0.501072 0.487625 0.167335
v -0.529461 0.511488 0.013185
v -0.461756 0.465400 0.101532
v 0.195033 0.420430 0.269920
v 0.139613 0.342332 0.312480
v 0.267133 0.299542 0.257953
v 0.466157 0.168006 0.040645
v 0.374278 0.000252 0.098204
v 0.337858 0.000382 -0.008002
v -0.385318 0.723235 -0.166222
v -0.370087 0.497697 -0.163958
v -0.477804 0.535932 -0.121953
v 0.276925 0.274485 -0.206841
v 0.146630 0.224808 -0.260525
v 0.021313 0.358640 -0.305865
v -0.014750 0.506322 -0.214653
v -0.267025 0.403837 -0.248460
v -0.157180 0.533104 -0.205532
v -0.253412 0.816698 -0.031882
v -0.358366 0.824972 0.014830
v -0.222221 0.787392 -0.023882
v -0.363087 0.466708 0.169209
v -0.373402 0.536546 0.256250
v -0.501072 0.487625 0.167335
v -0.259306 0.080160 0.003527
v -0.250418 0.136418 0.128878
v -0.260989 0.152114 -0.100023
v -0.157180 0.533104 -0.205532
v -0.213595 0.589746 -0.159845
v -0.014750 0.506322 -0.214653
v -0.022095 0.091575 -0.219476
v 0.192048 0.000914 -0.181246
v -0.110359 0.000541 -0.233079
v -0.259619 0.796100 -0.138686
v -0.229119 0.696270 -0.128129
v -0.274365 0.686902 -0.156417
v -0.499484 0.679732 -0.048097
v -0.477804 0.535932 -0.121953
v -0.541887 0.582400 0.005398
v 0.116707 0.047130 0.253903
v 0.114089 0.000542 0.239889
v 0.196037 0.087182 0.211365
v -0.464783 0.335631 0.119199
v -0.413397 0.241265 0.135502
v -0.334946 0.367332 0.223432
v -0.373402 0.536546 0.256250
v -0.382296 0.725494 0.195018
v -0.454187 0.611851 0.246646
v -0.339248 0.886467 -0.252408
v -0.343231 0.792893 -0.090822
v -0.220257 0.897471 -0.330069
v -0.200776 0.000527 0.202610
v -0.379319 0.001137 0.152107
v 0.114089 0.000542 0.239889
v 0.219852 0.452914 -0.183242
v 0.209245 0.349619 -0.236651
v 0.111198 0.416816 -0.215137
v 0.116707 0.047130 0.253903
v 0.194880 0.153437 0.255168
v 0.079064 0.234994 0.326105
v -0.339248 0.886467 -0.252408
v -0.220257 0.897471 -0.330069
v -0.301628 0.978534 -0.405706
v -0.039081 0.917012 -0.345430
v -0.101351 0.948022 -0.250289
v -0.029049 0.999257 -0.307189
v 0.196037 0.087182 0.211365
v 0.307972 0.000764 0.180051
v 0.280110 0.110347 0.210959
v -0.229119 0.696270 -0.128129
v -0.161767 0.617689 -0.025871
v -0.213595 0.589746 -0.159845
v 0.012093 0.839004 -0.198294
v -0.196235 0.711465 -0.064893
v 0.019861 0.821619 -0.245194
v 0.036945 0.983829 -0.278928
v 0.012093 0.839004 -0.198294
v 0.019861 0.821619 -0.245194
vn -0.2497 0.9085 -0.3351
vn 0.5866 -0.4395 0.6802
vn -0.5897 0.8073 -0.0224
vn -0.1197 0.6146 0.7797
vn 0.0098 -0.2961 -0.9551
vn 0.3422 -0.0637 -0.9375
vn -0.8861 -0.4541 0.0929
vn 0.7881 -0.4142 -0.4554
vn -0.1732 -0.0499 -0.9836
vn 0.2860 -0.3925 -0.8742
vn -0.9809 -0.1355 -0.1399
vn 0.1764 -0.2767 -0.9446
vn -0.1330 0.6106 0.7807
vn -0.2664 0.8215 -0.5041
vn 0.4556 0.3144 -0.8328
vn 0.9749 0.1623 0.1522
vn 0.1839 0.2814 -0.9418
vn 0.9804 -0.0721 -0.1835
vn -0.9026 -0.2000 -0.3812
vn 0.1952 0.4462 0.8734
vn -0.2147 0.5352 0.8170
vn -0.0262 -0.6540 -0.7561
vn 0.3485 0.0729 -0.9345
vn 0.7018 -0.1241 0.7015
vn 0.9511 -0.1557 -0.2668
vn 0.4311 0.8027 0.4121
vn 0.4685 0.2566 0.8454
vn 0.9986 0.0518 -0.0131
vn -0.8774 0.0848 0.4722
vn 0.3040 0.9356 -0.1795
vn -0.8774 -0.4620 0.1293
vn 0.7016 0.3944 -0.5934
vn 0.8688 0.1194 -0.4805
vn -0.8860 -0.1865 -0.4245
vn -0.4656 -0.6392 -0.6121
vn -0.4331 0.2921 -0.8527
vn 0.2302 -0.8943 -0.3837
vn -0.2776 0.7872 -0.5507
vn -0.5060 0.7152 0.4822
vn -0.0573 0.9530 -0.2976
vn -0.1516 0.9680 -0.2000
vn -0.3984 0.9114 0.1029
vn -0.9190 0.3940 -0.0115
vn 0.9797 -0.0061 -0.2004
vn -0.0760 0.8656 0.4949
vn 0.5877 -0.5931 -0.5503
vn -0.6130 -0.4444 -0.6533
vn -0.2573 0.4751 -0.8415
vn -0.6905 -0.1385 0.7099
vn -0.9403 0.1214 -0.3179
vn 0.0009 -1.0000 0.0018
vn -0.9167 0.0092 -0.3996
vn 0.3896 0.8487 -0.3576
vn -0.4226 0.6522 0.6294
vn -0.3581 0.9102 0.2081
vn 0.9675 -0.0925 -0.2353
vn 0.2310 0.6094 0.7584
vn 0.0008 -1.0000 0.0021
vn -0.6724 0.2109 -0.7095
vn 0.0826 0.1216 -0.9891
vn -0.4774 -0.1919 -0.8575
vn -0.6428 0.2186 0.7342
vn -0.4331 -0.2246 -0.8729
vn 0.7049 -0.4171 0.5737
vn 0.6535 0.6618 -0.3674
vn 0.3835 0.3928 -0.8358
vn -0.1872 -0.9775 -0.0971
vn -0.0411 0.1865 -0.9816
vn 0.9840 -0.1783 -0.0065
vn -0.3563 0.7757 0.5210
vn 0.7593 0.6506 0.0136
vn 0.3662 -0.0890 0.9263
vn -0.0760 0.0852 0.9935
vn -0.6227 0.4481 -0.6415
vn -0.8678 0.0304 -0.4961
vn -0.2410 -0.4920 -0.8366
vn -0.1576 0.9525 -0.2606
vn -0.8934 0.4370 0.1041
vn -0.7462 -0.4175 -0.5186
vn 0.4213 0.6571 -0.6251
vn -0.3791 -0.8389 -0.3905
vn -0.7625 0.1453 -0.6304
vn -0.5810 0.7179 0.3835
vn -0.9044 -0.1840 -0.3849
vn -0.9793 0.1956 -0.0521
vn -0.0325 0.6123 0.7899
vn -0.2334 0.7575 0.6097
vn -0.4071 0.5786 0.7067
vn 0.2902 0.6487 -0.7035
vn 0.2493 0.1895 -0.9497
vn -0.9368 0.0847 0.3394
vn 0.7861 -0.4818 0.3871
vn -0.2197 0.4705 -0.8546
vn -0.4549 0.8433 -0.2864
vn -0.1352 0.8032 -0.5802
vn 0.8492 -0.2423 0.4691
vn 0.6859 0.2317 0.6898
vn 0.8123 0.4520 0.3686
vn -0.7283 0.0568 -0.6829
vn 0.6959 0.4269 0.5774
vn 0.0893 -0.3417 0.9356
vn -0.8372 -0.3838 -0.3895
vn 0.7494 0.2918 -0.5944
vn -0.0006 -1.0000 0.0019
vn 0.2647 -0.5650 -0.7815
vn 0.6988 -0.0221 0.7150
vn -0.0755 0.4610 0.8842
vn 0.0832 0.1215 -0.9891
vn -0.4705 0.5649 0.6779
vn -0.3124 -0.5703 0.7597
vn -0.4428 -0.1834 -0.8777
vn -0.0321 0.0291 -0.9991
vn 0.2409 -0.7070 -0.6649
vn 0.8453 0.2441 -0.4752
vn -0.2528 0.9609 -0.1130
vn 0.3423 0.4501 -0.8248
vn -0.7595 0.4378 -0.4811
vn 0.1320 0.5091 0.8505
vn -0.7159 0.2423 0.6548
vn 0.3695 -0.2000 0.9074
vn 0.5190 0.3309 0.7881
vn 0.2076 0.4151 0.8858
vn -0.0476 -0.7374 -0.6738
vn -0.0826 0.8458 -0.5271
vn -0.4773 0.5724 0.6668
vn 0.1167 -0.9897 0.0830
vn -0.7406 0.2153 -0.6365
vn -0.5994 -0.1722 0.7817
vn 0.9569 0.2361 0.1692
vn 0.0073 0.9917 0.1283
vn 0.8683 0.0662 -0.4916
vn -0.7654 0.2643 0.5867
vn 0.2316 0.8558 -0.4626
vn -0.0003 -1.0000 -0.0048
vn 0.0313 -0.7473 -0.6638
vn -0.3111 0.0737 0.9475
vn -0.2692 -0.0334 -0.9625
vn -0.1167 0.2412 0.9634
vn -0.0114 -0.8607 -0.5090
vn -0.5242 0.8467 -0.0911
vn 0.1984 0.9776 0.0704
vn -0.2592 -0.0272 -0.9654
vn -0.4354 -0.3619 0.8243
vn -0.1824 0.4327 -0.8829
vn -0.5833 -0.0526 0.8106
vn 0.6628 0.2589 0.7026
vn -0.4590 0.4388 -0.7725
vn 0.9416 -0.1706 -0.2904
vn 0.1921 0.4540 0.8701
vn 0.0728 0.6924 -0.7178
vn 0.1815 0.0140 -0.9833
vn -0.4445 0.0595 0.8938
vn 0.8827 -0.3972 0.2512
vn -0.8145 -0.5056 0.2847
vn -0.3900 0.9107 0.1360
vn -0.0274 -0.9723 0.2321
vn -0.0027 -1.0000 -0.0074
vn -0.9690 -0.2443 -0.0377
vn -0.8008 0.3552 -0.4822
vn -0.5416 -0.3427 -0.7676
vn -0.3364 0.8866 -0.3174
vn -0.0656 0.5725 0.8172
vn 0.1878 0.2693 -0.9446
vn 0.0743 0.7192 0.6909
vn -0.0287 -0.2865 0.9577
vn -0.4203 0.6510 0.6322
vn -0.2468 0.9107 -0.3311
vn 0.6357 -0.0930 0.7663
vn 0.4268 -0.1570 -0.8906
vn 0.0720 0.0855 0.9937
vn -0.2123 0.4708 0.8563
vn -0.0199 0.1314 -0.9911
vn -0.6535 -0.4272 -0.6249
vn 0.1815 0.0203 0.9832
vn 0.9125 0.0687 0.4032
vn -0.7080 -0.5183 -0.4797
vn 0.0032 -1.0000 0.0005
vn 0.6150 0.4815 0.6245
vn -0.1868 -0.1952 0.9628
vn -0.8473 -0.4426 -0.2937
vn 0.2947 0.0357 0.9549
vn -0.4543 -0.0362 -0.8901
vn 0.1536 -0.5431 0.8255
vn 0.1178 0.9620 -0.2462
vn 0.3806 0.8892 0.2541
vn 0.2120 0.4058 0.8890
vn 0.5452 0.1651 -0.8219
vn -0.8748 -0.4421 0.1982
vn 0.5141 -0.4305 0.7419
vn 0.4059 0.8911 0.2030
vn 0.0726 -0.0789 -0.9942
vn 0.9677 -0.1888 0.1672
vn -0.5624 0.1244 0.8175
vn -0.3534 -0.1241 -0.9272
vn 0.9666 -0.1098 -0.2315
vn 0.1132 0.1478 0.9825
vn 0.7308 -0.3418 -0.5908
vn -0.7205 -0.5878 -0.3679
vn -0.7980 -0.6023 -0.0216
vn -0.8610 -0.4949 0.1173
vn 0.3407 0.6100 0.7154
vn 0.3146 0.9263 0.2071
vn 0.5893 -0.8073 -0.0321
vn 0.8330 -0.1330 -0.5370
vn -0.9241 0.0994 -0.3689
vn 0.8963 0.3840 0.2219
vn -0.5052 0.7727 -0.3843
vn 0.0471 -0.9019 -0.4294
vn 0.3740 0.7136 0.5924
vn 0.6986 -0.5154 0.4963
vn -0.7558 0.2918 -0.5861
vn -0.3036 -0.7649 -0.5681
vn 0.2474 -0.6251 -0.7403
vn 0.8040 -0.0023 0.5946
vn -0.9094 0.3935 -0.1347
vn 0.0201 -0.1616 -0.9867
vn -0.4049 -0.6688 0.6235
vn -0.7783 0.2505 0.5757
vn 0.6523 -0.0475 0.7565
vn 0.5537 -0.2411 0.7971
vn -0.9479 0.2189 0.2313
vn 0.4438 -0.8960 -0.0155
vn -0.0065 -1.0000 0.0010
vn -0.0294 0.0651 0.9974
vn -0.6611 -0.7406 0.1203
vn -0.1428 -0.8575 0.4943
vn -0.9266 0.0885 -0.3654
vn 0.5328 -0.8453 -0.0400
vn -0.1072 0.6818 0.7237
vn 0.4618 -0.7553 -0.4651
vn 0.7923 -0.5087 -0.3368
vn -0.2514 -0.9660 -0.0606
vn 0.7032 -0.1256 0.6998
vn -0.5704 0.7168 0.4010
vn 0.2960 0.9327 0.2062
vn -0.3504 -0.4636 0.8138
vn 0.0894 -0.2287 -0.9694
vn 0.2190 0.4539 -0.8637
vn -0.0244 0.7731 -0.6338
vn 0.5748 0.2775 -0.7698
vn -0.8293 -0.3638 -0.4242
vn -0.4291 0.9011 -0.0627
vn 0.4168 -0.7695 -0.4839
vn -0.5853 -0.1304 0.8003
vn -0.6993 0.6165 0.3618
vn -0.3386 -0.4122 0.8458
vn 0.1902 0.3623 0.9125
vn 0.5863 0.1454 -0.7970
vn -0.7668 -0.3669 -0.5266
vn 0.3967 -0.2132 0.8928
vn 0.6391 -0.3057 0.7058
vn 0.8194 0.2337 0.5234
vn -0.0224 0.9173 0.3976
vn 0.6835 0.2621 0.6813
vn 0.6623 -0.2357 -0.7112
vn -0.9492 -0.1351 0.2843
vn -0.2439 -0.9682 -0.0551
vn 0.9216 0.3217 0.2170
vn -0.5992 0.7427 0.2990
vn 0.3042 0.6644 0.6827
vn -0.1488 -0.9604 0.2355
vn 0.3026 -0.3842 -0.8722
vn -0.1018 -0.4877 0.8671
vn -0.0706 0.8876 0.4551
vn -0.3409 -0.5768 0.7423
vn 0.4781 0.2005 0.8551
vn -0.5328 -0.8456 -0.0328
vn 0.4356 0.1723 0.8835
vn 0.8003 -0.5327 -0.2751
vn -0.3737 -0.0345 -0.9269
vn 0.3702 0.0322 -0.9284
vn -0.0013 0.3162 -0.9487
vn 0.3672 0.5877 0.7210
vn -0.1267 -0.7810 0.6116
vn -0.9976 0.0477 0.0493
vn 0.0793 0.6725 -0.7358
vn 0.1689 -0.0165 -0.9855
vn 0.5187 0.0683 -0.8522
vn -0.8698 0.1153 -0.4797
vn 0.5568 -0.2678 0.7863
vn -0.5877 -0.1839 0.7879
vn 0.1789 0.3109 0.9335
vn 0.2428 0.8369 0.4906
vn 0.0025 -0.9998 -0.0211
vn 0.1119 0.4473 -0.8874
vn 0.3558 -0.2723 0.8940
vn 0.2819 0.7904 0.5439
vn -0.7213 0.3624 -0.5902
vn 0.0744 -0.2531 0.9646
vn 0.8855 0.2463 -0.3939
vn 0.6434 -0.6770 0.3575
vn 0.9804 -0.0645 0.1863
s 1
f 1//1 2//1 3//1
f 4//2 5//2 6//2
f 7//3 8//3 9//3
f 10//4 11//4 12//4
f 13//5 14//5 15//5
f 16//6 17//6 18//6
f 19//7 20//7 21//7
f 22//8 23//8 24//8
f 25//9 26//9 27//9
f 28//10 29//10 30//10
f 31//11 32//11 33//11
f 34//12 35//12 36//12
f 37//13 38//13 39//13
f 40//14 41//14 42//14
f 43//15 44//15 45//15
f 46//16 47//16 48//16
f 49//17 50//17 51//17
f 52//18 53//18 54//18
f 55//19 56//19 57//19
f 58//20 59//20 60//20
f 61//21 62//21 63//21
f 64//22 65//22 66//22
f 67//23 68//23 69//23
f 70//24 71//24 72//24
f 73//25 74//25 75//25
f 76//26 77//26 78//26
f 79//27 80//27 81//27
f 82//28 83//28 84//28
f 85//29 86//29 87//29
f 88//30 89//30 90//30
f 91//31 92//31 93//31
f 94//32 95//32 96//32
f 97//33 98//33 99//33
f 100//34 101//34 102//34
f 103//35 104//35 105//35
f 106//36 107//36 108//36
f 109//37 110//37 111//37
f 112//38 113//38 114//38
f 115//39 116//39 117//39
f 118//40 119//40 120//40
f 121//41 122//41 123//41
f 124//42 125//42 126//42
f 127//43 128//43 129//43
f 130//44 131//44 132//44
f 133//45 134//45 135//45
f 136//46 137//46 138//46
f 139//47 140//47 141//47
f 142//48 143//48 144//48
f 145//49 146//49 147//49
f 148//50 149//50 150//50
f 151//51 152//51 153//51
f 154//52 155//52 156//52
f 157//53 158//53 159//53
f 160//54 161//54 162//54
f 163//55 164//55 165//55
f 166//56 167//56 168//56
f 169//57 170//57 171//57
f 172//58 173//58 174//58
f 175//59 176//59 177//59
f 178//60 179//60 180//60
f 181//61 182//61 183//61
f 184//62 185//62 186//62
f 187//63 188//63 189//63
f 190//64 191//64 192//64
f 193//65 194//65 195//65
f 196//66 197//66 198//66
f 199//67 200//67 201//67
f 202//68 203//68 204//68
f 205//69 206//69 207//69
f 208//70 209//70 210//70
f 211//71 212//71 213//71
f 214//72 215//72 216//72
f 217//73 218//73 219//73
f 220//74 221//74 222//74
f 223//75 224//75 225//75
f 226//76 227//76 228//76
f 229//77 230//77 231//77
f 232//78 233//78 234//78
f 235//79 236//79 237//79
f 238//80 239//80 240//80
f 241//81 242//81 243//81
f 244//82 245//82 246//82
f 247//83 248//83 249//83
f 250//84 251//84 252//84
f 253//85 254//85 255//85
f 256//86 257//86 258//86
f 259//87 260//87 261//87
f 262//88 263//88 264//88
f 265//89 266//89 267//89
f 268//90 269//90 270//90
f 271//91 272//91 273//91
f 274//92 275//92 276//92
f 277//93 278//93 279//93
f 280//94 281//94 282//94
f 283//95 284//95 285//95
f 286//96 287//96 288//96
f 289//97 290//97 291//97
f 292//98 293//98 294//98
f 295//99 296//99 297//99
f 298//100 299//100 300//100
f 301//101 302//101 303//101
f 304//102 305//102 306//102
f 307//103 308//103 309//103
f 310//104 311//104 312//104
f 313//105 314//105 315//105
f 316//106 317//106 318//106
f 319//107 320//107 321//107
f 322//108 323//108 324//108
f 325//109 326//109 327//109
f 328//110 329//110 330//110
f 331//111 332//111 333//111
f 334//112 335//112 336//112
f 337//113 338//113 339//113
f 340//114 341//114 342//114
f 343//115 344//115 345//115
f 346//116 347//116 348//116
f 349//117 350//117 351//117
f 352//118 353//118 354//118
f 355//119 356//119 357//119
f 358//120 359//120 360//120
f 361//121 362//121 363//121
f 364//122 365//122 366//122
f 367//123 368//123 369//123
f 370//124 371//124 372//124
f 373//125 374//125 375//125
f 376//126 377//126 378//126
f 379//127 380//127 381//127
f 382//128 383//128 384//128
f 385//129 386//129 387//129
f 388//130 389//130 390//130
f 391//131 392//131 393//131
f 394//132 395//132 396//132
f 397//133 398//133 399//133
f 400//134 401//134 402//134
f 403//135 404//135 405//135
f 406//136 407//136 408//136
f 409//137 410//137 411//137
f 412//138 413//138 414//138
f 415//139 416//139 417//139
f 418//140 419//140 420//140
f 421//141 422//141 423//141
f 424//142 425//142 426//142
f 427//143 428//143 429//143
f 430//144 431//144 432//144
f 433//145 434//145 435//145
f 436//146 437//146 438//146
f 439//147 440//147 441//147
f 442//148 443//148 444//148
f 445//149 446//149 447//149
f 448//150 449//150 450//150
f 451//151 452//151 453//151
f 454//152 455//152 456//152
f 457//153 458//153 459//153
f 460//154 461//154 462//154
f 463//155 464//155 465//155
f 466//156 467//156 468//156
f 469//157 470//157 471//157
f 472//158 473//158 474//158
f 475//159 476//159 477//159
f 478//160 479//160 480//160
f 481//161 482//161 483//161
f 484//162 485//162 486//162
f 487//163 488//163 489//163
f 490//164 491//164 492//164
f 493//165 494//165 495//165
f 496//166 497//166 498//166
f 499//167 500//167 501//167
f 502//168 503//168 504//168
f 505//169 506//169 507//169
f 508//170 509//170 510//170
f 511//171 512//171 513//171
f 514//172 515//172 516//172
f 517//173 518//173 519//173
f 520//174 521//174 522//174
f 523//175 524//175 525//175
f 526//176 527//176 528//176
f 529//177 530//177 531//177
f 532//178 533//178 534//178
f 535//179 536//179 537//179
f 538//180 539//180 540//180
f 541//181 542//181 543//181
f 544//182 545//182 546//182
f 547//183 548//183 549//183
f 550//184 551//184 552//184
f 553//185 554//185 555//185
f 556//186 557//186 558//186
f 559//187 560//187 561//187
f 562//188 563//188 564//188
f 565//189 566//189 567//189
f 568//190 569//190 570//190
f 571//191 572//191 573//191
f 574//192 575//192 576//192
f 577//193 578//193 579//193
f 580//194 581//194 582//194
f 583//195 584//195 585//195
f 586//196 587//196 588//196
f 589//197 590//197 591//197
f 592//198 593//198 594//198
f 595//199 596//199 597//199
f 598//200 599//200 600//200
f 601//201 602//201 603//201
f 604//202 605//202 606//202
f 607//203 608//203 609//203
f 610//204 611//204 612//204
f 613//205 614//205 615//205
f 616//206 617//206 618//206
f 619//207 620//207 621//207
f 622//208 623//208 624//208
f 625//209 626//209 627//209
f 628//210 629//210 630//210
f 631//211 632//211 633//211
f 634//212 635//212 636//212
f 637//213 638//213 639//213
f 640//214 641//214 642//214
f 643//215 644//215 645//215
f 646//216 647//216 648//216
f 649//217 650//217 651//217
f 652//218 653//218 654//218
f 655//219 656//219 657//219
f 658//220 659//220 660//220
f 661//221 662//221 663//221
f 664//222 665//222 666//222
f 667//223 668//223 669//223
f 670//224 671//224 672//224
f 673//225 674//225 675//225
f 676//226 677//226 678//226
f 679//227 680//227 681//227
f 682//228 683//228 684//228
f 685//229 686//229 687//229
f 688//230 689//230 690//230
f 691//231 692//231 693//231
f 694//232 695//232 696//232
f 697//233 698//233 699//233
f 700//234 701//234 702//234
f 703//235 704//235 705//235
f 706//236 707//236 708//236
f 709//237 710//237 711//237
f 712//238 713//238 714//238
f 715//239 716//239 717//239
f 718//240 719//240 720//240
f 721//241 722//241 723//241
f 724//242 725//242 726//242
f 727//243 728//243 729//243
f 730//244 731//244 732//244
f 733//245 734//245 735//245
f 736//246 737//246 738//246
f 739//247 740//247 741//247
f 742//248 743//248 744//248
f 745//249 746//249 747//249
f 748//250 749//250 750//250
f 751//251 752//251 753//251
f 754//252 755//252 756//252
f 757//253 758//253 759//253
f 760//254 761//254 762//254
f 763//255 764//255 765//255
f 766//256 767//256 768//256
f 769//257 770//257 771//257
f 772//258 773//258 774//258
f 775//259 776//259 777//259
f 778//260 779//260 780//260
f 781//261 782//261 783//261
f 784//262 785//262 786//262
f 787//263 788//263 789//263
f 790//264 791//264 792//264
f 793//265 794//265 795//265
f 796//266 797//266 798//266
f 799//267 800//267 801//267
f 802//268 803//268 804//268
f 805//269 806//269 807//269
f 808//270 809//270 810//270
f 811//271 812//271 813//271
f 814//272 815//272 816//272
f 817//273 818//273 819//273
f 820//274 821//274 822//274
f 823//275 824//275 825//275
f 826//276 827//276 828//276
f 829//277 830//277 831//277
f 832//278 833//278 834//278
f 835//279 836//279 837//279
f 838//280 839//280 840//280
f 841//281 842//281 843//281
f 844//282 845//282 846//282
f 847//283 848//283 849//283
f 850//284 851//284 852//284
f 853//285 854//285 855//285
f 856//286 857//286 858//286
f 859//287 860//287 861//287
f 862//288 863//288 864//288
f 865//289 866//289 867//289
f 868//290 869//290 870//290
f 871//291 872//291 873//291
f 874//292 875//292 876//292
